<svg xmlns="http://www.w3.org/2000/svg" viewBox="0 0 800 600" fill="none">
  <rect width="800" height="600" fill="#f8f9fa"/>
  <rect x="50" y="50" width="700" height="500" rx="8" fill="#e9ecef"/>
  <!-- Buildings -->
  <rect x="150" y="150" width="60" height="300" fill="#1D4474" opacity="0.3"/>
  <rect x="230" y="100" width="80" height="350" fill="#1D4474" opacity="0.4"/>
  <rect x="330" y="180" width="70" height="270" fill="#1D4474" opacity="0.3"/>
  <rect x="420" y="120" width="90" height="330" fill="#1D4474" opacity="0.4"/>
  <rect x="530" y="160" width="60" height="290" fill="#1D4474" opacity="0.3"/>
  <!-- Gold accents -->
  <rect x="155" y="200" width="8" height="8" fill="#CCA540" opacity="0.7"/>
  <rect x="175" y="200" width="8" height="8" fill="#CCA540" opacity="0.7"/>
  <rect x="155" y="220" width="8" height="8" fill="#CCA540" opacity="0.5"/>
  <rect x="240" y="150" width="10" height="10" fill="#CCA540" opacity="0.7"/>
  <rect x="260" y="150" width="10" height="10" fill="#CCA540" opacity="0.5"/>
  <rect x="430" y="170" width="10" height="10" fill="#CCA540" opacity="0.7"/>
  <rect x="450" y="170" width="10" height="10" fill="#CCA540" opacity="0.5"/>
  <!-- Text placeholder -->
  <rect x="100" y="480" width="200" height="20" rx="4" fill="#CCA540" opacity="0.4"/>
  <rect x="100" y="510" width="150" height="15" rx="4" fill="#adb5bd" opacity="0.4"/>
</svg>
