<svg xmlns="http://www.w3.org/2000/svg" viewBox="0 0 1920 1080" fill="none">
  <rect width="1920" height="1080" fill="#1D4474"/>
  <!-- Buildings -->
  <rect x="600" y="400" width="80" height="400" fill="#153258"/>
  <rect x="700" y="300" width="100" height="500" fill="#153258"/>
  <rect x="820" y="350" width="90" height="450" fill="#153258"/>
  <rect x="930" y="250" width="120" height="550" fill="#153258"/>
  <rect x="1070" y="320" width="100" height="480" fill="#153258"/>
  <rect x="1190" y="380" width="80" height="420" fill="#153258"/>
  <!-- Windows -->
  <rect x="710" y="320" width="8" height="8" fill="#CCA540" opacity="0.8"/>
  <rect x="730" y="320" width="8" height="8" fill="#CCA540" opacity="0.6"/>
  <rect x="750" y="320" width="8" height="8" fill="#CCA540" opacity="0.9"/>
  <rect x="710" y="340" width="8" height="8" fill="#CCA540" opacity="0.7"/>
  <rect x="730" y="340" width="8" height="8" fill="#CCA540" opacity="0.5"/>
  <rect x="750" y="340" width="8" height="8" fill="#CCA540" opacity="0.8"/>
  <rect x="940" y="270" width="10" height="10" fill="#CCA540" opacity="0.9"/>
  <rect x="960" y="270" width="10" height="10" fill="#CCA540" opacity="0.7"/>
  <rect x="980" y="270" width="10" height="10" fill="#CCA540" opacity="0.8"/>
  <rect x="940" y="290" width="10" height="10" fill="#CCA540" opacity="0.6"/>
  <rect x="960" y="290" width="10" height="10" fill="#CCA540" opacity="0.9"/>
  <rect x="980" y="290" width="10" height="10" fill="#CCA540" opacity="0.7"/>
  <!-- Ground -->
  <rect x="0" y="800" width="1920" height="280" fill="#0d1e38"/>
  <rect x="600" y="800" width="670" height="2" fill="#CCA540" opacity="0.5"/>
</svg>
