<svg xmlns="http://www.w3.org/2000/svg" viewBox="0 0 200 60" fill="none">
  <!-- Building Icons -->
  <rect x="20" y="15" width="18" height="35" rx="2" fill="#1D4474"/>
  <rect x="42" y="10" width="18" height="40" rx="2" fill="#1D4474"/>
  <!-- Windows -->
  <rect x="24" y="20" width="4" height="4" fill="#CCA540" opacity="0.9"/>
  <rect x="30" y="20" width="4" height="4" fill="#CCA540" opacity="0.9"/>
  <rect x="24" y="28" width="4" height="4" fill="#CCA540" opacity="0.9"/>
  <rect x="30" y="28" width="4" height="4" fill="#CCA540" opacity="0.9"/>
  <rect x="24" y="36" width="4" height="4" fill="#CCA540" opacity="0.9"/>
  <rect x="30" y="36" width="4" height="4" fill="#CCA540" opacity="0.9"/>
  <rect x="46" y="15" width="4" height="4" fill="#CCA540" opacity="0.9"/>
  <rect x="52" y="15" width="4" height="4" fill="#CCA540" opacity="0.9"/>
  <rect x="46" y="23" width="4" height="4" fill="#CCA540" opacity="0.9"/>
  <rect x="52" y="23" width="4" height="4" fill="#CCA540" opacity="0.9"/>
  <rect x="46" y="31" width="4" height="4" fill="#CCA540" opacity="0.9"/>
  <rect x="52" y="31" width="4" height="4" fill="#CCA540" opacity="0.9"/>
  <rect x="46" y="39" width="4" height="4" fill="#CCA540" opacity="0.9"/>
  <rect x="52" y="39" width="4" height="4" fill="#CCA540" opacity="0.9"/>
  <!-- Text -->
  <text x="70" y="28" font-family="Arial, sans-serif" font-size="16" font-weight="bold" fill="#1D4474">Marbella</text>
  <text x="70" y="48" font-family="Arial, sans-serif" font-size="14" font-weight="600" fill="#CCA540">Twin Towers</text>
</svg>
